# xmcd
#
# Track frame offsets: 
#        150
#        9829
#        25351
#        45482
#        63994
#        96799
#        110487
#        123225
#        148304
#        168478
#        186987
#        200384
#        215436
#
# Disc length: 3156 seconds
#
# Revision: 3
# Processed by: cddbd v1.5.2PL0 Copyright (c) Steve Scherf et al.
# Submitted via: ExactAudioCopyFreeDBPlugin 1.0
#
DISCID=b50c520d
DTITLE=Eric Bibb, Rory Block and Maria Muldaur - Sisters and Brothers
DYEAR=2004
DGENRE=Blues
TTITLE0=Rock Daniel
TTITLE1=Don't Ever Let Nobody Drag Your Spirit Down
TTITLE2=Get Up Get Ready
TTITLE3=Lean On Me
TTITLE4=Bessie's Advice
TTITLE5=Good Stuff
TTITLE6=Rolling Log
TTITLE7=Gotta Serve Somebody
TTITLE8=Travelin' Woman Blues
TTITLE9=Little Rain
TTITLE10=Maggie Campbell
TTITLE11=Give A Little More
TTITLE12=My Sisters And Brothers
EXTD=
EXTT0=
EXTT1=
EXTT2=
EXTT3=
EXTT4=
EXTT5=
EXTT6=
EXTT7=
EXTT8=
EXTT9=
EXTT10=
EXTT11=
EXTT12=
PLAYORDER=
